<svg width="63" height="94" viewBox="0 0 63 94" fill="none" xmlns="http://www.w3.org/2000/svg">
<path d="M55.0744 28.6225C60.8741 19.4429 63.9411 12.0457 59.7005 2.02255L57.773 13.5877V16.2863C57.773 16.2863 55.8455 23.2254 38.1122 34.0196C20.3788 44.8138 11.8977 44.0428 5.7296 48.6688C-0.43849 53.2949 1.16028 69.5102 2.26003 72.5703C3.7967 80.0888 6.28766 82.5015 10.3557 87.2195C15.0914 91.2998 18.0372 92.0917 23.4629 92.6166C29.8802 92.0729 28.3126 91.851 34.2571 90.3036C40.2016 88.7561 52.3759 71.4137 50.4484 66.7877C48.5208 62.1616 38.8832 59.0775 31.9441 59.0775C25.0049 59.0775 15.6031 61.8488 11.8977 65.6311C8.65704 70.1759 8.81366 73.3413 10.3557 75.6543C17.0061 82.0514 18.0328 82.3576 19.6078 82.5934L14.9818 77.5818C8.42815 65.6311 24.6194 63.3181 30.402 65.6311C36.1846 67.9442 41.7753 73.8903 33.1006 87.2195C30.1098 90.6979 22.2941 94.1214 10.3557 84.1354C7.6595 78.5241 6.04062 75.4527 4.9586 68.7152C2.26003 47.5123 21.5904 49.0767 35.4136 44.8138C43.2692 41.7685 47.6472 39.5705 55.0744 28.6225Z" fill="black" stroke="black"/>
</svg>
