<svg width="44" height="44" viewBox="0 0 44 44" fill="none" xmlns="http://www.w3.org/2000/svg">
<g filter="url(#filter0_d_824_52)">
<path d="M18.6776 2.70845C19.4774 -0.832399 24.5226 -0.832399 25.3224 2.70845C25.8408 5.00328 28.4742 6.09409 30.4635 4.83794C33.5328 2.89974 37.1003 6.46722 35.1621 9.53654C33.9059 11.5258 34.9967 14.1592 37.2915 14.6776C40.8324 15.4774 40.8324 20.5226 37.2915 21.3224C34.9967 21.8408 33.9059 24.4742 35.1621 26.4635C37.1003 29.5328 33.5328 33.1003 30.4635 31.1621C28.4742 29.9059 25.8408 30.9967 25.3224 33.2915C24.5226 36.8324 19.4774 36.8324 18.6776 33.2915C18.1592 30.9967 15.5258 29.9059 13.5365 31.1621C10.4672 33.1003 6.89974 29.5328 8.83794 26.4635C10.0941 24.4742 9.00328 21.8408 6.70845 21.3224C3.1676 20.5226 3.1676 15.4774 6.70845 14.6776C9.00328 14.1592 10.0941 11.5258 8.83794 9.53654C6.89974 6.46722 10.4672 2.89974 13.5365 4.83794C15.5258 6.09409 18.1592 5.00328 18.6776 2.70845Z" fill="#CBC2C2"/>
<path d="M19.4092 2.8737C20.0329 0.112516 23.9671 0.112518 24.5908 2.8737C25.2234 5.67384 28.4367 7.00483 30.8639 5.47209C33.2574 3.96066 36.0393 6.74261 34.5279 9.1361C32.9952 11.5633 34.3262 14.7766 37.1263 15.4092C39.8875 16.0329 39.8875 19.9671 37.1263 20.5908C34.3262 21.2234 32.9952 24.4367 34.5279 26.8639C36.0393 29.2574 33.2574 32.0393 30.8639 30.5279C28.4367 28.9952 25.2234 30.3262 24.5908 33.1263C23.9671 35.8875 20.0329 35.8875 19.4092 33.1263C18.7766 30.3262 15.5633 28.9952 13.1361 30.5279C10.7426 32.0393 7.96067 29.2574 9.47209 26.8639C11.0048 24.4367 9.67384 21.2234 6.8737 20.5908C4.11252 19.9671 4.11252 16.0329 6.8737 15.4092C9.67384 14.7766 11.0048 11.5633 9.47209 9.1361C7.96066 6.74261 10.7426 3.96067 13.1361 5.47209C15.5633 7.00483 18.7766 5.67384 19.4092 2.8737Z" stroke="#B1AAAA" stroke-width="1.5"/>
</g>
<defs>
<filter id="filter0_d_824_52" x="0.0527954" y="0.0528107" width="43.8944" height="43.8944" filterUnits="userSpaceOnUse" color-interpolation-filters="sRGB">
<feFlood flood-opacity="0" result="BackgroundImageFix"/>
<feColorMatrix in="SourceAlpha" type="matrix" values="0 0 0 0 0 0 0 0 0 0 0 0 0 0 0 0 0 0 127 0" result="hardAlpha"/>
<feOffset dy="4"/>
<feGaussianBlur stdDeviation="2"/>
<feComposite in2="hardAlpha" operator="out"/>
<feColorMatrix type="matrix" values="0 0 0 0 0 0 0 0 0 0 0 0 0 0 0 0 0 0 0.25 0"/>
<feBlend mode="normal" in2="BackgroundImageFix" result="effect1_dropShadow_824_52"/>
<feBlend mode="normal" in="SourceGraphic" in2="effect1_dropShadow_824_52" result="shape"/>
</filter>
</defs>
</svg>
